<svg xmlns="http://www.w3.org/2000/svg" viewBox="0 0 600 900" role="img" aria-labelledby="title desc">
  <title id="title">Manga Studio tarot illustration</title>
  <desc id="desc">An antique celestial comic artist desk with ink, framed story panels, moonlight, and ornate gold engraving.</desc>
  <defs>
    <radialGradient id="bg" cx="50%" cy="34%" r="74%"><stop stop-color="#182034"/><stop offset=".48" stop-color="#0b101c"/><stop offset="1" stop-color="#03070d"/></radialGradient>
    <linearGradient id="gold" x1="0" y1="0" x2="1" y2="1"><stop stop-color="#f2dda0"/><stop offset=".43" stop-color="#b88b32"/><stop offset="1" stop-color="#6e4817"/></linearGradient>
    <linearGradient id="ink" x1="0" y1="0" x2="1" y2="1"><stop stop-color="#251a38"/><stop offset="1" stop-color="#080d19"/></linearGradient>
    <filter id="glow"><feGaussianBlur stdDeviation="10" result="b"/><feMerge><feMergeNode in="b"/><feMergeNode in="SourceGraphic"/></feMerge></filter>
    <pattern id="stars" width="83" height="83" patternUnits="userSpaceOnUse"><circle cx="11" cy="17" r="1" fill="#e7cf82" opacity=".5"/><circle cx="61" cy="42" r="1.4" fill="#9bb8d1" opacity=".38"/><circle cx="37" cy="72" r=".8" fill="#fff1bd" opacity=".42"/></pattern>
  </defs>
  <rect width="600" height="900" rx="28" fill="url(#bg)"/><rect width="600" height="900" rx="28" fill="url(#stars)"/>
  <circle cx="300" cy="315" r="194" fill="none" stroke="#c89a3f" stroke-width="2" opacity=".23"/><circle cx="300" cy="315" r="156" fill="none" stroke="#c89a3f" stroke-dasharray="3 11" opacity=".28"/>
  <g fill="none" stroke="url(#gold)"><rect x="17" y="17" width="566" height="866" rx="23" stroke-width="5"/><rect x="30" y="30" width="540" height="840" rx="17" stroke-width="1.8" opacity=".72"/><path d="M42 145C94 116 110 74 125 42M558 145c-52-29-68-71-83-103M42 755c52 29 68 71 83 103m433-103c-52 29-68 71-83 103" stroke-width="3"/><path d="M43 96c64 0 96-17 123-53M557 96c-64 0-96-17-123-53M43 804c64 0 96 17 123 53m391-53c-64 0-96 17-123 53" opacity=".6"/></g>
  <g fill="#d9b65e"><path d="M300 39l7 18 18 7-18 7-7 18-7-18-18-7 18-7z"/><path d="M79 78l4 10 10 4-10 4-4 10-4-10-10-4 10-4zm442 0l4 10 10 4-10 4-4 10-4-10-10-4 10-4z"/></g>
  <path d="M378 98a70 70 0 1 1-76-77 64 64 0 0 0 76 77z" fill="#d9b65e" opacity=".92" filter="url(#glow)"/>
  <g transform="translate(102 139)">
    <path d="M31 66L197 11l168 55-19 506-149 52L49 572z" fill="#060a12" stroke="#d9b65e" stroke-width="5"/><path d="M52 83L197 35l147 48-16 469-131 46-129-46z" fill="url(#ink)" stroke="#7c5a28" stroke-width="2"/>
    <g stroke="#d9b65e" stroke-width="5"><path d="M68 99h258v138H68z" fill="#121a2a"/><path d="M68 254h122v132H68z" fill="#1a1627"/><path d="M205 254h121v132H205z" fill="#101c25"/><path d="M68 403h258v129H68z" fill="#171321"/></g>
    <g fill="none" stroke="#caa34f" stroke-linecap="round"><path d="M99 214c8-53 29-81 66-83 38-3 64 26 72 83" stroke-width="6"/><ellipse cx="168" cy="148" rx="42" ry="49" stroke-width="4"/><path d="M129 143c4-46 21-66 50-61 23 4 36 22 34 58-17-14-33-19-48-18-14 1-26 8-36 21z" fill="#b88b32" opacity=".48"/><path d="M239 113h58c14 0 22 8 22 21v36c0 14-8 21-22 21h-25l-21 18 6-18h-18c-14 0-22-7-22-21v-36c0-13 8-21 22-21z" fill="#d7c28f" stroke-width="3"/><path d="M237 292c4-35 20-53 48-53 27 0 42 20 43 59M221 372c7-50 29-76 66-76 31 0 50 21 57 76M92 370c5-54 27-81 63-81 31 0 51 25 56 81M86 506c9-60 37-91 84-91 42 0 69 29 78 91m-15 0c5-52 26-79 63-79 27 0 47 20 57 61" stroke-width="5"/></g>
    <g fill="#d9b65e" opacity=".72"><circle cx="92" cy="111" r="4"/><circle cx="307" cy="111" r="4"/><path d="M107 275l5 12 12 5-12 5-5 12-5-12-12-5 12-5zM284 426l5 12 12 5-12 5-5 12-5-12-12-5 12-5z"/></g>
  </g>
  <g transform="rotate(-15 410 615)"><path d="M414 456c38 88 44 176 21 267" fill="none" stroke="#e0c470" stroke-width="13" stroke-linecap="round"/><path d="M420 456c51 38 66 103 30 163-18-42-38-69-63-82 9-35 20-62 33-81z" fill="url(#gold)" stroke="#f2dda0" stroke-width="3"/><path d="M433 711l9 34-23 24-7-33z" fill="#d7bc70" stroke="#f2dda0" stroke-width="3"/></g>
  <g transform="translate(90 704)"><ellipse cx="88" cy="52" rx="67" ry="25" fill="#070b12" stroke="#b88b32" stroke-width="5"/><path d="M35 52v61c0 18 106 18 106 0V52" fill="#0b101a" stroke="#b88b32" stroke-width="5"/><ellipse cx="88" cy="52" rx="52" ry="15" fill="#211735" stroke="#dec16f" stroke-width="3"/><path d="M88 62c25 22 31 52 18 90" fill="none" stroke="#a07cc7" stroke-width="5" opacity=".7"/></g>
  <g fill="#d9b65e" opacity=".9"><path d="M300 821l6 15 15 6-15 6-6 15-6-15-15-6 15-6z"/><circle cx="252" cy="842" r="3"/><circle cx="348" cy="842" r="3"/></g>
</svg>
